<svg width="25" height="24" viewBox="0 0 25 24" fill="none"
    xmlns="http://www.w3.org/2000/svg">
    <g clip-path="url(#clip0_847_2770)">
        <path d="M18.6667 10C18.6667 8.4087 18.0345 6.88258 16.9093 5.75736C15.7841 4.63214 14.258 4 12.6667 4C11.0754 4 9.54926 4.63214 8.42405 5.75736C7.29883 6.88258 6.66669 8.4087 6.66669 10V18H18.6667V10ZM20.6667 18.667L21.0667 19.2C21.1224 19.2743 21.1563 19.3626 21.1647 19.4551C21.173 19.5476 21.1554 19.6406 21.1139 19.7236C21.0724 19.8067 21.0085 19.8765 20.9296 19.9253C20.8506 19.9741 20.7595 20 20.6667 20H4.66669C4.57383 20 4.48281 19.9741 4.40382 19.9253C4.32483 19.8765 4.261 19.8067 4.21947 19.7236C4.17795 19.6406 4.16037 19.5476 4.16871 19.4551C4.17705 19.3626 4.21097 19.2743 4.26669 19.2L4.66669 18.667V10C4.66669 7.87827 5.50954 5.84344 7.00983 4.34315C8.51012 2.84285 10.545 2 12.6667 2C14.7884 2 16.8233 2.84285 18.3235 4.34315C19.8238 5.84344 20.6667 7.87827 20.6667 10V18.667ZM10.1667 21H15.1667C15.1667 21.663 14.9033 22.2989 14.4345 22.7678C13.9656 23.2366 13.3297 23.5 12.6667 23.5C12.0036 23.5 11.3678 23.2366 10.8989 22.7678C10.4301 22.2989 10.1667 21.663 10.1667 21V21Z" fill="currentColor"/>
    </g>
    <defs>
        <clipPath id="clip0_847_2770">
            <rect width="24" height="24" fill="white" transform="translate(0.666687)"/>
        </clipPath>
    </defs>
</svg>
