<svg width="16" height="16" viewBox="0 0 16 16" fill="none"
    xmlns="http://www.w3.org/2000/svg">
    <g clip-path="url(#clip0_847_2873)">
        <path d="M3.33332 1.33333H12.6667C12.8435 1.33333 13.013 1.40357 13.1381 1.52859C13.2631 1.65361 13.3333 1.82318 13.3333 1.99999V14.762C13.3334 14.8216 13.3175 14.8801 13.2873 14.9315C13.257 14.9829 13.2136 15.0252 13.1614 15.0541C13.1093 15.0829 13.0503 15.0973 12.9908 15.0956C12.9312 15.094 12.8731 15.0764 12.8227 15.0447L7.99999 12.02L3.17732 15.044C3.1269 15.0757 3.06891 15.0933 3.00939 15.0949C2.94987 15.0966 2.89098 15.0823 2.83885 15.0535C2.78673 15.0248 2.74326 14.9825 2.71298 14.9313C2.6827 14.88 2.6667 14.8215 2.66666 14.762V1.99999C2.66666 1.82318 2.73689 1.65361 2.86192 1.52859C2.98694 1.40357 3.15651 1.33333 3.33332 1.33333ZM12 2.66666H3.99999V12.9547L7.99999 10.4473L12 12.9547V2.66666Z" fill="currentColor"/>
    </g>
    <defs>
        <clipPath id="clip0_847_2873">
            <rect width="16" height="16" fill="white"/>
        </clipPath>
    </defs>
</svg>
