<svg width="16" height="16" viewBox="0 0 16 16" fill="none"
    xmlns="http://www.w3.org/2000/svg">
    <g clip-path="url(#clip0_847_2851)">
        <path d="M4.86065 13.8827L1.33332 14.6667L2.11732 11.1393C1.60101 10.1736 1.33167 9.09509 1.33332 8C1.33332 4.318 4.31799 1.33333 7.99999 1.33333C11.682 1.33333 14.6667 4.318 14.6667 8C14.6667 11.682 11.682 14.6667 7.99999 14.6667C6.90489 14.6683 5.8264 14.399 4.86065 13.8827V13.8827ZM5.05399 12.474L5.48932 12.7073C6.26169 13.1201 7.12425 13.3352 7.99999 13.3333C9.05482 13.3333 10.086 13.0205 10.963 12.4345C11.8401 11.8485 12.5237 11.0155 12.9273 10.041C13.331 9.06643 13.4366 7.99408 13.2308 6.95951C13.0251 5.92495 12.5171 4.97464 11.7712 4.22876C11.0253 3.48288 10.075 2.97493 9.04047 2.76914C8.0059 2.56335 6.93355 2.66897 5.95901 3.07264C4.98447 3.4763 4.15152 4.15989 3.56548 5.03695C2.97945 5.91402 2.66665 6.94516 2.66665 8C2.66665 8.88933 2.88332 9.74533 3.29332 10.5107L3.52599 10.946L3.08932 12.9107L5.05399 12.474V12.474Z" fill="currentColor"/>
    </g>
    <defs>
        <clipPath id="clip0_847_2851">
            <rect width="16" height="16" fill="white"/>
        </clipPath>
    </defs>
</svg>
