<svg width="10" height="11" viewBox="0 0 10 11" fill="none" xmlns="http://www.w3.org/2000/svg">
<path fill-rule="evenodd" clip-rule="evenodd" d="M1 10.5H9C9.13261 10.5 9.25979 10.4473 9.35355 10.3536C9.44732 10.2598 9.5 10.1326 9.5 10V1C9.5 0.867392 9.44732 0.740215 9.35355 0.646447C9.25979 0.552678 9.13261 0.5 9 0.5H1C0.867392 0.5 0.740215 0.552678 0.646447 0.646447C0.552678 0.740215 0.5 0.867392 0.5 1V10C0.5 10.1326 0.552678 10.2598 0.646447 10.3536C0.740215 10.4473 0.867392 10.5 1 10.5ZM3 4H7V5H3V4ZM3 6H7V7H3V6Z" fill="#BCBCBC"/>
</svg>
