<svg width="16" height="16" viewBox="0 0 16 16" fill="none"
    xmlns="http://www.w3.org/2000/svg">
    <g clip-path="url(#clip0_847_2864)">
        <g clip-path="url(#clip1_847_2864)">
            <path d="M2.33582 9.57113L2.40035 10.7466C2.40457 10.8267 2.43458 10.902 2.48522 10.9637C2.83918 11.3923 4.42614 12.8875 8.00236 12.8875C11.5786 12.8875 13.1463 11.4116 13.5134 10.9717C13.5687 10.9053 13.6006 10.8229 13.6058 10.7363L13.6697 9.57195C14.0955 9.33833 14.535 9.07436 14.535 9.07436C15.2261 8.69998 15.9973 9.23777 15.9987 10.0266C16.001 11.3028 15.0038 12.6143 13.6588 13.4408C12.1421 14.3728 9.87817 14.7594 8.00333 14.7594C6.12849 14.7594 3.86454 14.3728 2.34789 13.4408C1.00282 12.6143 0.0056251 11.3033 0.00796921 10.0266C0.00937569 9.23777 0.780595 8.69998 1.47164 9.07436C1.47164 9.07436 1.91041 9.33768 2.33582 9.57113Z" fill="currentColor"/>
            <path d="M8.00285 1.22917C10.9269 1.22917 11.7197 1.29746 12.9086 1.43403H12.9082C13.4562 1.49713 13.8955 1.90495 13.8547 2.45735L13.4168 8.42326C13.2797 8.46297 13.1303 8.51311 12.9627 8.56937C12.0842 8.86418 10.7071 9.32632 8.00283 9.32632C5.2985 9.32632 3.92143 8.86418 3.04297 8.56937C2.8752 8.51305 2.7256 8.46286 2.58844 8.42314L2.1505 2.45735C2.11018 1.90495 2.54806 1.48724 3.09705 1.43403C4.27146 1.32006 5.49417 1.22917 8.00285 1.22917ZM2.79828 11.2818L2.79982 11.3028L2.83004 11.3097C2.81923 11.3003 2.80865 11.291 2.79828 11.2818ZM13.1782 11.3091L13.2054 11.3028L13.2068 11.2837C13.1975 11.2921 13.1879 11.3005 13.1782 11.3091Z" fill="currentColor"/>
        </g>
    </g>
    <defs>
        <clipPath id="clip0_847_2864">
            <rect width="16" height="16" fill="white"/>
        </clipPath>
        <clipPath id="clip1_847_2864">
            <rect width="16" height="13.5463" fill="white" transform="translate(0 1.22687)"/>
        </clipPath>
    </defs>
</svg>
