<svg width="24" height="24" viewBox="0 0 24 24" fill="none"
    xmlns="http://www.w3.org/2000/svg">
    <g clip-path="url(#clip0_400_4836)">
        <path d="M18.3643 15.536L16.9503 14.12L18.3643 12.706C18.8319 12.2424 19.2034 11.6911 19.4573 11.0836C19.7113 10.4761 19.8428 9.8244 19.8442 9.16595C19.8457 8.5075 19.717 7.85525 19.4657 7.24665C19.2144 6.63804 18.8454 6.08507 18.3798 5.61947C17.9142 5.15387 17.3612 4.78483 16.7526 4.53351C16.144 4.2822 15.4917 4.15357 14.8333 4.15502C14.1748 4.15646 13.5232 4.28794 12.9157 4.54192C12.3082 4.79589 11.7568 5.16736 11.2933 5.63499L9.87926 7.04999L8.46426 5.63599L9.88026 4.22199C11.1931 2.90917 12.9736 2.17163 14.8303 2.17163C16.6869 2.17163 18.4674 2.90917 19.7803 4.22199C21.0931 5.53481 21.8306 7.31538 21.8306 9.17199C21.8306 11.0286 21.0931 12.8092 19.7803 14.122L18.3653 15.536H18.3643ZM15.5363 18.364L14.1213 19.778C12.8084 21.0908 11.0279 21.8283 9.17126 21.8283C7.31465 21.8283 5.53408 21.0908 4.22126 19.778C2.90843 18.4652 2.1709 16.6846 2.1709 14.828C2.1709 12.9714 2.90843 11.1908 4.22126 9.87799L5.63626 8.46399L7.05026 9.87999L5.63626 11.294C5.16863 11.7575 4.79716 12.3089 4.54318 12.9164C4.28921 13.5239 4.15773 14.1756 4.15628 14.834C4.15484 15.4925 4.28347 16.1447 4.53478 16.7533C4.78609 17.3619 5.15514 17.9149 5.62074 18.3805C6.08633 18.8461 6.63931 19.2152 7.24791 19.4665C7.85652 19.7178 8.50877 19.8464 9.16722 19.845C9.82567 19.8435 10.4774 19.712 11.0849 19.4581C11.6924 19.2041 12.2437 18.8326 12.7073 18.365L14.1213 16.951L15.5363 18.365V18.364ZM14.8283 7.75699L16.2433 9.17199L9.17226 16.242L7.75726 14.828L14.8283 7.75799V7.75699Z" fill="currentColor"/>
    </g>
    <defs>
        <clipPath id="clip0_400_4836">
            <rect width="24" height="24" fill="white"/>
        </clipPath>
    </defs>
</svg>
