<svg width="10" height="12" viewBox="0 0 10 12" fill="none"
    xmlns="http://www.w3.org/2000/svg">
    <path d="M5 9.95001L7.475 7.47501C7.96445 6.98551 8.29776 6.36187 8.43278 5.68294C8.5678 5.00402 8.49846 4.30031 8.23355 3.66078C7.96863 3.02126 7.52002 2.47466 6.94446 2.09009C6.3689 1.70552 5.69222 1.50026 5 1.50026C4.30778 1.50026 3.63111 1.70552 3.05554 2.09009C2.47998 2.47466 2.03138 3.02126 1.76646 3.66078C1.50154 4.30031 1.43221 5.00402 1.56723 5.68294C1.70225 6.36187 2.03555 6.98551 2.525 7.47501L5 9.95001ZM5 11.364L1.818 8.18201C1.18867 7.55267 0.760093 6.75084 0.586464 5.87793C0.412835 5.00502 0.501953 4.10022 0.842549 3.27796C1.18315 2.45569 1.75992 1.75289 2.49994 1.25843C3.23996 0.763965 4.10999 0.500046 5 0.500046C5.89002 0.500046 6.76004 0.763965 7.50006 1.25843C8.24008 1.75289 8.81686 2.45569 9.15745 3.27796C9.49805 4.10022 9.58717 5.00502 9.41354 5.87793C9.23991 6.75084 8.81133 7.55267 8.182 8.18201L5 11.364V11.364ZM5 6.00001C5.26522 6.00001 5.51957 5.89465 5.70711 5.70711C5.89464 5.51958 6 5.26522 6 5.00001C6 4.73479 5.89464 4.48044 5.70711 4.2929C5.51957 4.10536 5.26522 4.00001 5 4.00001C4.73479 4.00001 4.48043 4.10536 4.2929 4.2929C4.10536 4.48044 4 4.73479 4 5.00001C4 5.26522 4.10536 5.51958 4.2929 5.70711C4.48043 5.89465 4.73479 6.00001 5 6.00001ZM5 7.00001C4.46957 7.00001 3.96086 6.78929 3.58579 6.41422C3.21072 6.03915 3 5.53044 3 5.00001C3 4.46957 3.21072 3.96087 3.58579 3.58579C3.96086 3.21072 4.46957 3.00001 5 3.00001C5.53043 3.00001 6.03914 3.21072 6.41422 3.58579C6.78929 3.96087 7 4.46957 7 5.00001C7 5.53044 6.78929 6.03915 6.41422 6.41422C6.03914 6.78929 5.53043 7.00001 5 7.00001Z" fill="currentColor"/>
</svg>
