<svg width="21" height="20" viewBox="0 0 21 20" fill="none"
    xmlns="http://www.w3.org/2000/svg">
    <path d="M4.56094 2.5H16.4393C16.5708 2.49998 16.7004 2.53108 16.8176 2.59075C16.9347 2.65042 17.0361 2.73698 17.1134 2.84333L20.2993 7.22333C20.3559 7.30127 20.3838 7.39642 20.3782 7.4926C20.3725 7.58877 20.3338 7.68003 20.2684 7.75083L10.8059 18.0017C10.731 18.0827 10.6269 18.1307 10.5166 18.135C10.4063 18.1394 10.2988 18.0998 10.2176 18.025C10.2118 18.02 7.05094 14.5958 0.731776 7.75083C0.666446 7.68003 0.62767 7.58877 0.622048 7.4926C0.616427 7.39642 0.644306 7.30127 0.700943 7.22333L3.88678 2.84333C3.96409 2.73698 4.06548 2.65042 4.18265 2.59075C4.29982 2.53108 4.42945 2.49998 4.56094 2.5ZM4.98594 4.16667L2.65261 7.375L10.5001 15.875L18.3476 7.375L16.0143 4.16667H4.98594Z" fill="currentColor"/>
</svg>
