<svg width="18" height="18" viewBox="0 0 18 18" fill="none" xmlns="http://www.w3.org/2000/svg">
<path d="M10.5 10.689V16.5H3C2.99977 15.5842 3.20919 14.6804 3.61222 13.858C4.01526 13.0357 4.6012 12.3164 5.32516 11.7555C6.04912 11.1946 6.89188 10.8068 7.78886 10.622C8.68585 10.4371 9.61325 10.46 10.5 10.689V10.689ZM9 9.75C6.51375 9.75 4.5 7.73625 4.5 5.25C4.5 2.76375 6.51375 0.75 9 0.75C11.4863 0.75 13.5 2.76375 13.5 5.25C13.5 7.73625 11.4863 9.75 9 9.75ZM13.5 12.75V10.5H15V12.75H17.25V14.25H15V16.5H13.5V14.25H11.25V12.75H13.5Z" fill="#3AACFF"/>
</svg>
