<svg width="16" height="16" viewBox="0 0 16 16" fill="none"
    xmlns="http://www.w3.org/2000/svg">
    <g clip-path="url(#clip0_847_2857)">
        <path d="M12 11.922V10.6667L15.3333 12.6667L12 14.6667V13.2733C10.981 13.1274 10.0166 12.7217 9.19968 12.0953C8.38275 11.469 7.74073 10.6429 7.33534 9.69666L7.33334 9.69333L7.33134 9.69733C6.86873 10.7765 6.09966 11.6962 5.11941 12.3425C4.13916 12.9888 2.99082 13.3333 1.81668 13.3333H1.33334V12H1.81668C2.73 12 3.62323 11.7319 4.38569 11.2291C5.14814 10.7263 5.74629 10.0108 6.10601 9.17133L6.60801 8L6.10601 6.82866C5.74629 5.98916 5.14814 5.27367 4.38569 4.77086C3.62323 4.26805 2.73 4.00002 1.81668 3.99999H1.33334V2.66666H1.81668C2.99089 2.66672 4.13928 3.01131 5.11954 3.65775C6.0998 4.30418 6.86883 5.22404 7.33134 6.30333L7.33334 6.30666L7.33534 6.30266C7.74082 5.35653 8.38288 4.53062 9.19981 3.90436C10.0167 3.27809 10.981 2.87253 12 2.72666V1.33333L15.3333 3.33333L12 5.33333V4.078C11.2446 4.21796 10.5354 4.54225 9.93546 5.0221C9.33548 5.50194 8.86325 6.12249 8.56068 6.82866L8.05868 8L8.56068 9.17133C8.86325 9.8775 9.33548 10.498 9.93546 10.9779C10.5354 11.4577 11.2446 11.782 12 11.922V11.922Z" fill="currentColor"/>
    </g>
    <defs>
        <clipPath id="clip0_847_2857">
            <rect width="16" height="16" fill="white"/>
        </clipPath>
    </defs>
</svg>
