<svg width="25" height="24" viewBox="0 0 25 24" fill="none"
    xmlns="http://www.w3.org/2000/svg">
    <g clip-path="url(#clip0_847_2765)">
        <path d="M12.8393 3.62301L11.8163 5.39501C8.90634 4.51601 6.30234 4.94501 5.40534 6.50001C4.22734 8.54001 6.19534 12.152 10.0833 14.397C13.9713 16.642 18.0833 16.539 19.2613 14.5C20.1593 12.945 19.2283 10.476 17.0123 8.39501L18.0353 6.62301C21.1173 9.33201 22.4983 12.893 20.9933 15.5C19.1333 18.722 13.8043 18.855 9.08334 16.13C4.36234 13.402 1.81334 8.72101 3.67334 5.50001C5.17834 2.89301 8.95334 2.30801 12.8393 3.62301ZM16.2173 1.77301L17.9493 2.77301L12.9493 11.433L11.2173 10.433L16.2173 1.77301V1.77301ZM7.06534 20H17.3333V22H5.35034C5.17184 22.0036 4.99567 21.959 4.84031 21.871C4.68495 21.7831 4.55612 21.6549 4.46734 21.5C4.38006 21.3478 4.33413 21.1754 4.33413 21C4.33413 20.8246 4.38006 20.6522 4.46734 20.5L6.71734 16.603L8.44934 17.603L7.06534 20Z" fill="currentColor"/>
    </g>
    <defs>
        <clipPath id="clip0_847_2765">
            <rect width="24" height="24" fill="white" transform="translate(0.333344)"/>
        </clipPath>
    </defs>
</svg>
