<svg width="14" height="12" viewBox="0 0 14 12" fill="none"
    xmlns="http://www.w3.org/2000/svg">
    <path d="M6.66667 8.33334H5.33333C4.23973 8.33292 3.16682 8.63143 2.23058 9.19661C1.29435 9.76178 0.530401 10.5721 0.0213343 11.54C0.00702532 11.3604 -9.15218e-05 11.1802 8.88408e-07 11C8.88408e-07 7.31801 2.98467 4.33334 6.66667 4.33334V0.666672L13.6667 6.33334L6.66667 12V8.33334ZM5.33333 7H8V9.20534L11.5473 6.33334L8 3.46134V5.66667H6.66667C5.90017 5.66581 5.14253 5.83055 4.44559 6.14962C3.74866 6.46869 3.12888 6.93455 2.62867 7.51534C3.48955 7.17415 4.40731 6.99928 5.33333 7Z" fill="currentColor"/>
</svg>
