<svg width="16" height="16" viewBox="0 0 16 16" fill="none"
    xmlns="http://www.w3.org/2000/svg">
    <g clip-path="url(#clip0_847_2878)">
        <path d="M8.66667 9.33334H7.33333C6.23973 9.33292 5.16682 9.63143 4.23058 10.1966C3.29435 10.7618 2.5304 11.5721 2.02133 12.54C2.00703 12.3604 1.99991 12.1802 2 12C2 8.318 4.98467 5.33334 8.66667 5.33334V1.66667L15.6667 7.33334L8.66667 13V9.33334ZM7.33333 8H10V10.2053L13.5473 7.33334L10 4.46134V6.66667H8.66667C7.90017 6.66581 7.14253 6.83055 6.44559 7.14962C5.74866 7.46869 5.12888 7.93455 4.62867 8.51534C5.48955 8.17415 6.40731 7.99928 7.33333 8Z" fill="currentColor"/>
    </g>
    <defs>
        <clipPath id="clip0_847_2878">
            <rect width="16" height="16" fill="white"/>
        </clipPath>
    </defs>
</svg>
